<svg xmlns="http://www.w3.org/2000/svg" width="220" height="400" viewBox="0 0 220 400"><title>Mara walking flat placeholder</title><rect width="220" height="400" fill="none"/><ellipse cx="110" cy="370" rx="72" ry="20" fill="#000" opacity=".25"/><circle cx="110" cy="65" r="42" fill="#f0c3a1" stroke="#30201b" stroke-width="8"/><path d="M69 69Q70 8 118 18Q171 28 147 78Q130 49 105 58Q87 73 69 69Z" fill="#a53b2b"/><path d="M60 110L160 110L180 300L40 300Z" fill="#a97843" stroke="#30201b" stroke-width="9"/><path d="M92 111H128L140 285H80Z" fill="#e9e0c9"/><path d="M107 112L124 112L132 220L113 242L96 220Z" fill="#9d302c"/><path d="M55 135L20 250" stroke="#a97843" stroke-width="32" stroke-linecap="round"/><path d="M165 135L200 245" stroke="#a97843" stroke-width="32" stroke-linecap="round"/><path d="M70 295L62 367M145 295L153 367" stroke="#315d67" stroke-width="38" stroke-linecap="round"/><path d="M42 375H82M133 375H175" stroke="#4b3022" stroke-width="22" stroke-linecap="round"/><circle cx="95" cy="66" r="4"/><circle cx="126" cy="66" r="4"/><text x="110" y="340" text-anchor="middle" font-family="Georgia,serif" font-size="18" font-weight="700" fill="#f6e7bd">MARA • WALK</text></svg>